<?xml version="1.0" encoding="UTF-8"?><svg id="Layer_1" xmlns="http://www.w3.org/2000/svg" xmlns:xlink="http://www.w3.org/1999/xlink" viewBox="0 0 571.94 165.19"><defs><style>.cls-1{fill:none;}.cls-2{fill:#595da9;}.cls-3{fill:url(#New_Gradient_Swatch_copy_2);}.cls-4{clip-path:url(#clippath-20);}.cls-5{clip-path:url(#clippath-21);}.cls-6{clip-path:url(#clippath-14);}.cls-7{clip-path:url(#clippath-13);}.cls-8{clip-path:url(#clippath-12);}.cls-9{clip-path:url(#clippath-15);}.cls-10{clip-path:url(#clippath-17);}.cls-11{clip-path:url(#clippath-16);}.cls-12{clip-path:url(#clippath-19);}.cls-13{clip-path:url(#clippath-11);}.cls-14{clip-path:url(#clippath-18);}</style><clipPath id="clippath-11"><path class="cls-1" d="M79.83,150.79v2.8h-21.64v-30.61h20.99v2.8h-17.75v10.89h15.83v2.75h-15.83v11.37h18.41Z"/></clipPath><linearGradient id="New_Gradient_Swatch_copy_2" x1="58.19" y1="138.29" x2="513.75" y2="138.29" gradientTransform="matrix(1, 0, 0, 1, 0, 0)" gradientUnits="userSpaceOnUse"><stop offset="0" stop-color="#58a2d1"/><stop offset="1" stop-color="#6f489d"/></linearGradient><clipPath id="clippath-12"><path class="cls-1" d="M128.32,122.99v30.61h-2.67l-19.68-24.84v24.84h-3.24v-30.61h2.67l19.72,24.84v-24.84h3.19Z"/></clipPath><clipPath id="clippath-13"><path class="cls-1" d="M159.54,125.78h-10.76v-2.8h24.75v2.8h-10.76v27.81h-3.24v-27.81Z"/></clipPath><clipPath id="clippath-14"><path class="cls-1" d="M215.64,150.79v2.8h-21.64v-30.61h20.99v2.8h-17.75v10.89h15.83v2.75h-15.83v11.37h18.41Z"/></clipPath><clipPath id="clippath-15"><path class="cls-1" d="M259.45,153.59l-6.99-9.84c-.79,.09-1.6,.13-2.45,.13h-8.22v9.71h-3.24v-30.61h11.46c3.91,0,6.97,.93,9.18,2.8,2.21,1.87,3.32,4.43,3.32,7.7,0,2.39-.61,4.41-1.82,6.06-1.21,1.65-2.93,2.84-5.18,3.56l7.48,10.49h-3.54Zm-2.58-14.47c1.6-1.34,2.4-3.22,2.4-5.64s-.8-4.38-2.4-5.71c-1.6-1.33-3.92-1.99-6.95-1.99h-8.13v15.35h8.13c3.03,0,5.35-.67,6.95-2.01Z"/></clipPath><clipPath id="clippath-16"><path class="cls-1" d="M306.11,125.78c2.21,1.87,3.32,4.43,3.32,7.7s-1.11,5.82-3.32,7.67c-2.22,1.85-5.28,2.78-9.18,2.78h-8.22v9.66h-3.24v-30.61h11.46c3.91,0,6.97,.93,9.18,2.8Zm-2.32,13.31c1.6-1.33,2.4-3.2,2.4-5.62s-.8-4.38-2.4-5.71c-1.6-1.33-3.92-1.99-6.95-1.99h-8.13v15.3h8.13c3.03,0,5.35-.66,6.95-1.99Z"/></clipPath><clipPath id="clippath-17"><path class="cls-1" d="M352.63,153.59l-7-9.84c-.79,.09-1.6,.13-2.45,.13h-8.22v9.71h-3.24v-30.61h11.46c3.91,0,6.97,.93,9.18,2.8,2.22,1.87,3.32,4.43,3.32,7.7,0,2.39-.61,4.41-1.81,6.06-1.21,1.65-2.94,2.84-5.18,3.56l7.48,10.49h-3.54Zm-2.58-14.47c1.6-1.34,2.41-3.22,2.41-5.64s-.8-4.38-2.41-5.71c-1.6-1.33-3.92-1.99-6.95-1.99h-8.13v15.35h8.13c3.03,0,5.35-.67,6.95-2.01Z"/></clipPath><clipPath id="clippath-18"><path class="cls-1" d="M378.64,122.99h3.24v30.61h-3.24v-30.61Z"/></clipPath><clipPath id="clippath-19"><path class="cls-1" d="M409.05,152.76c-2.08-.73-3.69-1.69-4.83-2.89l1.27-2.49c1.11,1.11,2.58,2,4.42,2.69,1.84,.69,3.73,1.03,5.68,1.03,2.74,0,4.8-.5,6.17-1.51s2.05-2.31,2.05-3.91c0-1.22-.37-2.2-1.11-2.93-.74-.73-1.65-1.29-2.73-1.68-1.08-.39-2.58-.82-4.5-1.29-2.3-.58-4.14-1.14-5.51-1.68-1.37-.54-2.54-1.36-3.52-2.47-.98-1.11-1.47-2.61-1.47-4.5,0-1.54,.41-2.95,1.22-4.22,.82-1.27,2.07-2.28,3.76-3.04,1.69-.76,3.79-1.14,6.3-1.14,1.75,0,3.46,.24,5.14,.72s3.13,1.15,4.35,1.99l-1.09,2.58c-1.28-.84-2.65-1.48-4.11-1.9-1.46-.42-2.89-.63-4.29-.63-2.68,0-4.7,.52-6.06,1.55-1.36,1.04-2.03,2.37-2.03,4,0,1.22,.37,2.21,1.11,2.95s1.68,1.31,2.8,1.71,2.63,.82,4.52,1.29c2.25,.56,4.06,1.1,5.44,1.64,1.38,.54,2.56,1.36,3.52,2.45,.96,1.09,1.44,2.57,1.44,4.44,0,1.55-.42,2.95-1.25,4.22-.83,1.27-2.11,2.27-3.83,3.02s-3.84,1.11-6.34,1.11c-2.27,0-4.45-.36-6.54-1.09Z"/></clipPath><clipPath id="clippath-20"><path class="cls-1" d="M470.99,150.79v2.8h-21.64v-30.61h20.99v2.8h-17.75v10.89h15.83v2.75h-15.83v11.37h18.41Z"/></clipPath><clipPath id="clippath-21"><path class="cls-1" d="M495.8,152.76c-2.08-.73-3.69-1.69-4.83-2.89l1.27-2.49c1.11,1.11,2.58,2,4.42,2.69,1.84,.69,3.73,1.03,5.68,1.03,2.74,0,4.8-.5,6.17-1.51s2.06-2.31,2.06-3.91c0-1.22-.37-2.2-1.11-2.93-.75-.73-1.66-1.29-2.73-1.68-1.08-.39-2.58-.82-4.5-1.29-2.3-.58-4.14-1.14-5.51-1.68s-2.54-1.36-3.52-2.47-1.47-2.61-1.47-4.5c0-1.54,.41-2.95,1.22-4.22,.82-1.27,2.07-2.28,3.76-3.04,1.69-.76,3.79-1.14,6.3-1.14,1.75,0,3.46,.24,5.14,.72,1.67,.48,3.12,1.15,4.35,1.99l-1.09,2.58c-1.28-.84-2.65-1.48-4.11-1.9-1.46-.42-2.88-.63-4.29-.63-2.68,0-4.7,.52-6.06,1.55-1.35,1.04-2.03,2.37-2.03,4,0,1.22,.37,2.21,1.12,2.95,.74,.74,1.67,1.31,2.8,1.71s2.63,.82,4.52,1.29c2.25,.56,4.06,1.1,5.45,1.64,1.38,.54,2.56,1.36,3.52,2.45s1.44,2.57,1.44,4.44c0,1.55-.42,2.95-1.25,4.22-.83,1.27-2.11,2.27-3.83,3.02s-3.83,1.11-6.34,1.11c-2.27,0-4.45-.36-6.54-1.09Z"/></clipPath></defs><g><path class="cls-2" d="M45.14,11.5h36v6.04H45.14c-15.5,0-28.29,11.83-29.8,26.94H81.14v6.04H15.34c1.52,15.11,14.31,26.94,29.8,26.94h36v6.04H45.14c-19.88,0-36-16.12-36-36S25.26,11.5,45.14,11.5Z"/><path class="cls-2" d="M175.64,47.5v36h-6.04V47.5c0-16.52-13.44-29.96-29.96-29.96s-29.96,13.44-29.96,29.96v36h-6.04V47.5c0-19.88,16.12-36,36-36s36,16.12,36,36Z"/><path class="cls-2" d="M238.64,11.5l40.41,72h-7.38l-33.06-58.92-33.11,58.92h-7.35L238.64,11.5Z"/><path class="cls-2" d="M364.44,47.5c5.47,3.46,9.11,9.54,9.11,16.49v19.51h-6.04v-19.51c0-7.42-6.03-13.46-13.46-13.47h-46.46v32.98h-6.04V44.48h52.5c7.42,0,13.46-6.04,13.46-13.47s-6.04-13.47-13.47-13.47h-52.49v-6.04h52.49c10.78,0,19.51,8.74,19.51,19.51,0,6.95-3.64,13.03-9.11,16.49Z"/><path class="cls-2" d="M432.05,11.5h36v6.04h-36c-16.52,0-29.96,13.44-29.96,29.96s13.44,29.96,29.96,29.96h29.96v-26.94h-19.75v-6.04h25.79v39.02h-36c-19.88,0-36-16.12-36-36s16.12-36,36-36Z"/><path class="cls-2" d="M562.55,47.5c0,19.88-16.12,36-36,36s-36-16.12-36-36,16.12-36,36-36,36,16.12,36,36Zm-6.04,0c0-16.52-13.44-29.96-29.96-29.96s-29.96,13.44-29.96,29.96,13.44,29.96,29.96,29.96,29.96-13.44,29.96-29.96Z"/></g><g><g class="cls-13"><rect class="cls-3" x="58.19" y="122.99" width="9.49" height="30.61"/><rect class="cls-3" x="67.68" y="122.99" width="9.49" height="30.61"/><rect class="cls-3" x="77.17" y="122.99" width="2.66" height="30.61"/></g><g class="cls-8"><rect class="cls-3" x="102.74" y="122.99" width="2.9" height="30.61"/><rect class="cls-3" x="105.64" y="122.99" width="9.49" height="30.61"/><rect class="cls-3" x="115.13" y="122.99" width="9.49" height="30.61"/><rect class="cls-3" x="124.62" y="122.99" width="3.7" height="30.61"/></g><g class="cls-7"><rect class="cls-3" x="148.78" y="122.99" width="4.31" height="30.61"/><rect class="cls-3" x="153.1" y="122.99" width="9.49" height="30.61"/><rect class="cls-3" x="162.59" y="122.99" width="9.49" height="30.61"/><rect class="cls-3" x="172.08" y="122.99" width="1.46" height="30.61"/></g><g class="cls-6"><rect class="cls-3" x="194" y="122.99" width="6.56" height="30.61"/><rect class="cls-3" x="200.55" y="122.99" width="9.49" height="30.61"/><rect class="cls-3" x="210.04" y="122.99" width="5.6" height="30.61"/></g><g class="cls-9"><rect class="cls-3" x="241.79" y="125.78" width="6.22" height="15.35"/><rect class="cls-3" x="248.01" y="125.78" width="9.49" height="15.35"/><rect class="cls-3" x="257.5" y="125.78" width="1.78" height="15.35"/><rect class="cls-3" x="238.55" y="122.99" width="9.46" height="30.61"/><rect class="cls-3" x="248.01" y="122.99" width="9.49" height="30.61"/><rect class="cls-3" x="257.5" y="122.99" width="5.5" height="30.61"/></g><g class="cls-11"><rect class="cls-3" x="288.7" y="125.78" width="6.76" height="15.3"/><rect class="cls-3" x="295.46" y="125.78" width="9.49" height="15.3"/><rect class="cls-3" x="304.95" y="125.78" width="1.24" height="15.3"/><rect class="cls-3" x="285.47" y="122.99" width=".5" height="30.61"/><rect class="cls-3" x="285.97" y="122.99" width="9.49" height="30.61"/><rect class="cls-3" x="295.46" y="122.99" width="9.49" height="30.61"/><rect class="cls-3" x="304.95" y="122.99" width="4.48" height="30.61"/></g><g class="cls-10"><rect class="cls-3" x="334.96" y="125.78" width="7.95" height="15.35"/><rect class="cls-3" x="342.91" y="125.78" width="9.49" height="15.35"/><rect class="cls-3" x="352.41" y="125.78" width=".05" height="15.35"/><rect class="cls-3" x="331.73" y="122.99" width="1.7" height="30.61"/><rect class="cls-3" x="333.42" y="122.99" width="9.49" height="30.61"/><rect class="cls-3" x="342.91" y="122.99" width="9.49" height="30.61"/><rect class="cls-3" x="352.41" y="122.99" width="3.76" height="30.61"/></g><g class="cls-14"><rect class="cls-3" x="378.64" y="122.99" width="2.23" height="30.61"/><rect class="cls-3" x="380.88" y="122.99" width="1" height="30.61"/></g><g class="cls-12"><rect class="cls-3" x="404.22" y="122.72" width="5.13" height="31.13"/><rect class="cls-3" x="409.35" y="122.72" width="9.49" height="31.13"/><rect class="cls-3" x="418.84" y="122.72" width="8.16" height="31.13"/></g><g class="cls-4"><rect class="cls-3" x="449.34" y="122.99" width="7.46" height="30.61"/><rect class="cls-3" x="456.8" y="122.99" width="9.49" height="30.61"/><rect class="cls-3" x="466.3" y="122.99" width="4.69" height="30.61"/></g><g class="cls-5"><rect class="cls-3" x="490.97" y="122.72" width="3.8" height="31.13"/><rect class="cls-3" x="494.77" y="122.72" width="9.49" height="31.13"/><rect class="cls-3" x="504.26" y="122.72" width="9.49" height="31.13"/></g></g></svg>